 http://desibbrg.org/images/66952052392581364616.gif 
http://desibbrg.org/images/30178805641882552010.jpg 
http://desibbrg.org/images/83638150682077215176.jpg 
http://desibbrg.org/images/22025118591826024138.jpg 
http://desibbrg.org/images/45820007233240970771.jpg

Media Info - 
Video
ID : 1
Format : AVC
Format/Info : Advanced Video Codec
Format profile : High@L4.1
Format settings, CABAC : Yes
Format settings, ReFrames : 5 frames
Codec ID : V_MPEG4/ISO/AVC
Duration : 2h 55mn
Bit rate : 2 487 Kbps
Width : 1 280 pixels
Height : 544 pixels
Display aspect ratio : 2.35:1
Frame rate : 24.000 fps
Color space : YUV
Chroma subsampling : 4:2:0
Bit depth : 8 bits
Scan type : Progressive
Bits/(Pixel*Frame) : 0.149
Stream size : 2.98 GiB (85%)
Writing library : x264 core 116 r2044 392e762
Language : English
Default : Yes
Forced : No
Color primaries : BT.709-5, BT.1361, IEC 61966-2-4, SMPTE RP177
Transfer characteristics : BT.709-5, BT.1361
Matrix coefficients : BT.709-5, BT.1361, IEC 61966-2-4 709, SMPTE RP177

Audio
ID : 2
Format : AC-3
Format/Info : Audio Coding 3
Mode extension : CM (complete main)
Codec ID : A_AC3
Duration : 2h 55mn
Bit rate mode : Constant
Bit rate : 384 Kbps
Channel(s) : 6 channels
Channel positions : Front: L C R, Side: L R, LFE
Sampling rate : 48.0 KHz
Bit depth : 16 bits
Compression mode : Lossy
Stream size : 481 MiB (13%)
Language : English
Default : Yes
Forced : Yes

Ripper : NhaNc3

Seeding 24x7... Extreme Seeding...


Enjoy!
